<?xml version="1.0" standalone="no"?>
<!DOCTYPE svg PUBLIC "-//W3C//DTD SVG 20010904//EN"
 "http://www.w3.org/TR/2001/REC-SVG-20010904/DTD/svg10.dtd">
<svg version="1.0" xmlns="http://www.w3.org/2000/svg"
 width="500.000000pt" height="500.000000pt" viewBox="0 0 500.000000 500.000000"
 preserveAspectRatio="xMidYMid meet">
<metadata>
Created by potrace 1.14, written by Peter Selinger 2001-2017
</metadata>
<g transform="translate(0.000000,500.000000) scale(0.100000,-0.100000)"
fill="#000000" stroke="none">
<path d="M0 2500 l0 -2500 2500 0 2500 0 0 2500 0 2500 -2500 0 -2500 0 0
-2500z m4160 2230 c36 -5 119 -14 185 -19 176 -15 212 -29 280 -104 104 -114
142 -220 156 -442 16 -267 21 -586 11 -757 -9 -163 -11 -169 -45 -235 -39 -76
-105 -159 -154 -192 -17 -13 -55 -29 -85 -36 -117 -29 -615 -65 -919 -65 -113
0 -163 4 -223 20 -42 10 -93 18 -114 17 l-37 -2 -3 48 c-2 34 2 55 16 75 22
30 101 202 126 272 27 79 47 231 47 368 l0 133 31 19 c18 11 71 23 131 31 123
16 442 16 461 0 42 -35 67 -261 35 -326 -27 -57 -66 -67 -221 -59 l-138 6 0
-58 c0 -94 5 -101 69 -120 74 -21 320 -16 366 8 44 23 123 96 140 129 25 48
20 200 -10 283 -33 91 -80 171 -134 229 -59 63 -79 73 -197 93 -114 19 -292
15 -386 -10 -32 -9 -76 -17 -100 -18 -37 -3 -44 0 -56 25 -7 15 -18 76 -23
135 -5 59 -13 130 -18 157 -8 47 -15 65 -63 171 -10 22 -18 45 -18 50 0 5 -16
22 -35 37 -37 29 -48 74 -22 95 11 10 133 30 307 52 87 10 544 4 640 -10z
m-1308 -51 c7 -11 33 -31 58 -44 60 -31 96 -66 153 -148 77 -110 105 -175 148
-348 l42 -164 -6 -180 c-7 -235 -26 -339 -83 -474 -73 -171 -118 -227 -274
-331 -144 -98 -296 -134 -550 -132 -129 0 -173 5 -261 26 -121 28 -178 49
-232 85 -50 32 -153 161 -186 231 -24 53 -25 61 -24 245 2 179 9 286 33 485 5
47 15 126 21 175 6 50 9 173 7 275 -1 102 1 191 5 198 5 6 25 12 46 12 37 0
156 16 298 41 103 18 145 4 162 -53 14 -48 19 -57 72 -145 44 -71 86 -171 82
-193 -2 -8 -25 -23 -51 -33 -106 -40 -169 -79 -234 -143 -77 -77 -101 -130
-100 -228 0 -107 82 -260 160 -298 77 -39 272 -13 374 49 72 43 115 93 164
190 35 68 39 85 42 163 8 195 -66 361 -176 398 -57 19 -92 50 -92 82 0 22 12
38 53 72 28 24 65 53 81 64 16 10 70 47 120 81 98 66 129 75 148 42z m-1793
-44 c166 -34 274 -84 325 -151 45 -59 49 -73 45 -177 -5 -114 -32 -165 -125
-234 -38 -29 -91 -60 -119 -69 -27 -8 -57 -18 -65 -21 -9 -3 16 -21 65 -45
142 -72 195 -130 251 -274 23 -61 26 -84 28 -199 1 -126 0 -131 -28 -178 -37
-61 -93 -107 -186 -150 -190 -89 -402 -132 -601 -124 -123 5 -198 23 -309 75
-108 50 -100 -8 -103 724 -1 348 2 658 6 689 7 52 6 57 -12 62 -28 7 -27 43 1
61 21 13 144 31 273 40 28 2 136 2 241 0 153 -3 214 -9 313 -29z m378 -1836
c98 -14 138 -39 192 -119 37 -57 41 -68 41 -125 0 -58 -3 -67 -32 -98 -54 -56
-132 -80 -279 -85 l-126 -4 -11 29 c-15 38 -30 167 -34 293 l-3 105 35 6 c58
10 135 10 217 -2z m1466 2 c77 -10 218 -74 259 -119 14 -15 40 -55 57 -89 40
-81 47 -175 32 -483 -25 -536 -30 -652 -32 -800 -2 -120 -8 -175 -26 -250 -33
-138 -63 -221 -92 -257 -14 -17 -34 -43 -43 -56 -17 -25 -83 -74 -137 -101
-15 -8 -72 -26 -127 -41 -90 -23 -115 -25 -274 -24 -173 1 -175 2 -225 30
-148 85 -221 158 -257 255 -20 54 -23 83 -28 349 -4 221 -2 307 9 360 11 57
11 129 2 395 -9 277 -15 650 -12 728 1 18 7 22 30 22 16 0 42 5 58 11 15 6 73
15 128 20 103 9 195 21 325 44 88 15 257 18 353 6z m-1816 -86 c2 -44 10 -131
19 -193 12 -78 14 -116 6 -124 -18 -18 -70 2 -94 35 -12 18 -53 66 -90 107
-37 41 -76 94 -85 117 -10 24 -22 43 -26 43 -5 0 -5 -57 -1 -127 11 -201 12
-188 -15 -188 -33 0 -37 19 -46 207 -8 182 -3 203 48 192 44 -9 52 -17 86 -88
30 -62 166 -219 157 -181 -9 38 -18 264 -11 275 4 6 17 10 28 8 20 -3 22 -10
24 -83z m-537 45 c13 -18 29 -70 41 -134 23 -121 40 -175 68 -215 18 -24 18
-31 7 -47 -13 -17 -15 -17 -39 -1 -22 14 -37 44 -72 146 -4 8 -13 11 -28 7
-12 -3 -34 -6 -48 -6 -23 0 -28 -6 -38 -45 -6 -25 -21 -55 -32 -66 -19 -19
-23 -20 -37 -6 -14 15 -14 20 0 54 24 57 69 193 77 233 10 45 49 110 66 110 8
0 23 -13 35 -30z m4183 18 c11 -6 17 -21 17 -46 0 -20 7 -91 16 -157 8 -66 19
-156 25 -200 15 -121 -4 -283 -42 -355 -16 -30 -35 -62 -42 -70 -27 -34 -101
-83 -184 -122 -85 -41 -92 -42 -188 -42 -117 -1 -133 6 -217 88 -31 31 -59 56
-62 56 -2 0 -19 -20 -37 -45 -54 -75 -210 -141 -315 -132 -139 11 -234 109
-318 327 -42 109 -49 154 -42 253 4 51 9 148 13 217 3 69 9 132 14 141 4 9 32
28 61 43 l53 26 300 6 c165 3 361 9 435 13 184 11 491 11 513 -1z m-3248 -581
c55 -15 118 -34 140 -43 153 -62 174 -78 204 -159 28 -74 27 -158 -1 -246 -20
-62 -33 -80 -103 -152 -84 -85 -123 -109 -294 -182 -102 -44 -181 -65 -238
-65 -46 0 -61 -13 -43 -35 18 -22 144 -89 225 -121 63 -24 83 -27 205 -28 90
-1 149 4 177 13 29 10 55 11 89 5 58 -11 61 -20 69 -174 16 -290 15 -293 -37
-313 -34 -14 -83 -16 -317 -13 -302 4 -321 7 -505 78 -62 24 -94 44 -139 86
-31 30 -60 52 -64 49 -7 -8 -6 -99 3 -173 6 -52 6 -52 -27 -63 -40 -13 -171
-28 -324 -37 -162 -10 -150 -42 -151 385 -1 190 -6 398 -13 461 -6 63 -18 219
-26 345 -8 127 -17 243 -20 258 -9 54 2 71 63 94 120 45 322 62 712 59 304 -3
318 -4 415 -29z m3323 -384 c2 -18 -2 -42 -9 -55 -7 -12 -14 -74 -16 -138 -4
-114 -16 -288 -34 -490 -25 -280 -29 -407 -19 -494 13 -111 10 -116 -77 -116
-35 0 -72 -4 -81 -9 -22 -12 -328 -15 -542 -5 -110 4 -210 3 -300 -6 -106 -9
-484 -11 -1737 -5 -1406 7 -1603 10 -1608 23 -15 40 -24 40 943 34 1755 -10
2744 -1 2813 26 32 13 57 67 42 91 -8 13 -25 16 -79 14 -38 -1 -222 -4 -409
-8 -187 -3 -373 -10 -412 -16 -40 -6 -82 -8 -93 -4 -22 7 -28 44 -7 49 91 26
100 31 114 63 8 21 14 79 16 155 l2 122 79 12 c58 9 85 10 100 2 13 -7 70 -9
171 -4 82 3 228 9 323 13 l172 6 0 66 c0 60 -13 257 -26 389 -6 57 -35 102
-82 124 -28 14 -44 58 -20 58 7 0 142 1 299 3 l286 4 61 33 c36 19 64 41 68
54 17 55 57 61 62 9z m-1007 -189 c174 -25 252 -62 289 -134 36 -71 21 -147
-46 -237 -28 -37 -158 -103 -252 -127 -105 -27 -176 -22 -257 18 -82 40 -168
120 -185 172 -28 84 9 170 96 223 24 14 44 34 44 43 0 20 24 35 77 47 58 14
119 13 234 -5z"/>
<path d="M3609 4647 c-20 -23 -53 -67 -75 -97 -21 -30 -47 -61 -56 -68 -12 -9
-16 -21 -12 -36 8 -35 -18 -52 -50 -31 -14 10 -26 16 -26 14 0 -2 7 -29 16
-59 8 -30 19 -108 23 -173 5 -65 10 -119 12 -121 2 -2 41 4 86 12 75 14 82 18
77 36 -3 15 8 36 36 70 55 67 50 72 -11 9 -28 -29 -48 -57 -44 -62 10 -17 -36
-41 -57 -30 -25 13 -23 29 11 76 16 23 27 44 24 47 -4 3 -21 6 -40 6 -30 0
-33 3 -33 29 0 25 -4 30 -27 33 -16 2 -29 10 -31 19 -1 8 20 46 48 85 29 38
63 90 78 115 14 26 40 55 56 65 44 25 116 84 116 95 0 5 -19 9 -42 9 -38 -1
-47 -6 -79 -43z"/>
<path d="M3789 4661 c-8 -23 -116 -114 -157 -133 -14 -6 -102 -160 -96 -169 9
-14 23 -2 142 128 62 67 128 136 147 154 43 41 44 49 4 49 -24 0 -32 -6 -40
-29z"/>
<path d="M3913 4670 c5 -21 0 -31 -28 -51 -11 -8 -56 -52 -99 -99 -44 -47
-108 -115 -143 -153 -49 -51 -63 -72 -58 -87 4 -11 9 -20 13 -20 4 0 55 48
112 106 127 128 296 268 316 260 15 -6 18 -34 6 -51 -4 -6 -30 -27 -57 -47
-28 -20 -59 -46 -70 -59 l-20 -22 30 18 c17 10 50 35 75 55 25 20 53 39 63 43
9 3 17 15 17 26 0 10 6 21 13 23 22 9 37 -3 37 -28 0 -31 17 -30 56 4 39 34
58 68 43 78 -6 3 -59 8 -117 10 -59 3 -127 6 -150 8 -38 3 -43 1 -39 -14z"/>
<path d="M3444 4600 c-38 -65 -51 -80 -68 -78 -32 5 -31 34 4 89 18 27 30 52
28 55 -7 6 -128 -13 -137 -21 -3 -4 2 -11 12 -17 10 -5 36 -45 57 -89 l38 -78
53 58 c30 32 71 82 92 110 l38 51 -35 0 c-34 0 -38 -4 -82 -80z"/>
<path d="M4270 4626 c0 -30 -9 -41 -94 -110 -111 -90 -356 -327 -356 -344 0
-17 -35 -15 -50 3 -10 12 -5 24 34 70 26 29 83 86 126 126 44 40 78 74 75 77
-21 22 -310 -255 -329 -315 -7 -23 -6 -23 84 -23 85 0 91 1 99 23 5 12 46 58
92 102 45 44 129 132 185 195 56 63 125 137 153 165 28 27 51 53 51 57 0 4
-16 8 -35 8 -33 0 -35 -2 -35 -34z"/>
<path d="M4400 4634 c0 -8 -25 -38 -55 -66 -31 -28 -104 -105 -162 -172 -58
-67 -134 -148 -169 -181 -70 -68 -91 -115 -50 -115 16 0 26 7 31 23 3 12 58
69 122 127 63 57 133 131 154 163 21 32 60 83 86 113 38 43 53 54 73 52 31 -4
41 -44 14 -55 -25 -9 -67 -57 -120 -135 -25 -37 -87 -106 -139 -154 -52 -48
-95 -96 -97 -108 -2 -13 -11 -22 -25 -24 -33 -5 -28 -16 11 -30 42 -16 143
-121 185 -194 61 -107 85 -185 91 -292 l5 -99 45 54 c74 89 249 251 268 247
39 -8 19 -39 -96 -152 -66 -64 -137 -141 -158 -171 -22 -30 -47 -54 -57 -55
-10 0 -46 -27 -80 -60 -64 -62 -144 -110 -184 -110 -19 0 -23 -5 -23 -30 0
-25 -10 -36 -75 -80 -41 -27 -77 -50 -81 -50 -9 0 -147 -105 -163 -124 -12
-14 -6 -16 62 -16 87 0 107 5 107 29 0 17 19 30 140 93 91 48 109 61 116 80 3
9 14 20 25 23 10 4 19 12 19 19 0 6 57 71 128 143 70 73 156 166 191 207 52
62 69 76 92 76 24 0 29 -4 29 -24 0 -15 -7 -27 -17 -30 -10 -4 -43 -36 -73
-72 -78 -94 -315 -334 -328 -334 -7 0 -12 -10 -12 -22 0 -42 0 -42 -155 -122
-41 -22 -75 -44 -75 -48 0 -9 84 -5 208 8 44 5 52 9 50 23 -4 22 160 195 245
260 32 25 76 64 97 89 43 48 70 51 70 7 0 -27 -72 -103 -145 -152 -22 -15 -80
-70 -130 -122 l-90 -94 80 6 c119 9 165 29 227 96 29 32 66 82 82 112 26 48
30 68 37 189 9 163 11 500 3 553 -4 20 -11 37 -16 37 -5 0 -80 -70 -166 -156
-156 -155 -176 -168 -190 -124 -3 7 65 81 157 172 126 124 167 158 187 158
l27 0 -6 123 c-8 138 -25 224 -62 302 -45 93 -40 95 -188 -56 -73 -75 -165
-164 -204 -198 -40 -35 -81 -79 -92 -97 -23 -38 -45 -44 -60 -15 -15 27 25 78
145 184 54 48 147 138 206 201 l107 113 -24 23 c-13 12 -50 28 -82 36 -73 17
-73 17 -73 -2z m230 -259 c0 -16 -6 -25 -16 -25 -19 0 -92 -74 -138 -140 -43
-63 -232 -232 -253 -228 -27 5 -27 35 -1 60 47 45 152 140 168 151 9 7 29 32
45 57 15 24 50 68 78 97 41 44 56 53 83 53 30 0 34 -3 34 -25z m48 -116 c2 -9
-21 -35 -55 -63 -71 -58 -281 -264 -294 -288 -12 -22 -32 -23 -48 -4 -9 10 -9
20 -3 33 13 24 243 250 307 302 51 41 87 49 93 20z m6 -164 c3 -8 2 -24 -2
-34 -8 -22 -78 -84 -139 -123 -23 -15 -58 -48 -79 -73 -21 -25 -46 -45 -56
-45 -54 0 25 122 112 172 26 15 65 47 86 72 40 47 67 57 78 31z"/>
<path d="M3662 3813 c-13 -2 -26 -11 -29 -19 -3 -7 -29 -27 -58 -44 -40 -23
-54 -37 -59 -60 -4 -24 -11 -30 -31 -30 -24 0 -25 -3 -25 -57 l0 -57 33 32
c18 18 38 32 43 32 6 0 31 13 55 30 35 23 44 35 44 59 0 23 9 35 49 63 27 18
48 38 48 43 -2 11 -35 15 -70 8z"/>
<path d="M3790 3796 c0 -16 -14 -35 -44 -59 -30 -25 -43 -44 -43 -61 0 -21 2
-24 17 -16 23 12 150 141 150 152 0 4 -18 8 -40 8 -35 0 -40 -3 -40 -24z"/>
<path d="M3927 3813 c-4 -3 -7 -14 -7 -23 0 -20 -126 -150 -186 -191 -24 -16
-44 -34 -44 -39 0 -5 17 -12 37 -16 32 -6 39 -4 60 22 12 16 30 36 38 44 15
14 40 40 78 81 9 10 17 23 17 27 0 5 6 16 13 26 19 27 47 10 47 -28 0 -26 -13
-45 -70 -103 -38 -39 -66 -73 -63 -77 4 -3 34 -6 68 -6 83 0 100 18 100 103 0
83 -13 153 -31 172 -16 16 -46 20 -57 8z"/>
<path d="M3465 3779 c-11 -16 -2 -17 30 -3 l30 13 -27 1 c-15 0 -30 -5 -33
-11z"/>
<path d="M3587 3571 c-20 -10 -49 -28 -63 -42 -20 -19 -28 -21 -44 -12 -23 15
-27 5 -41 -87 -5 -36 -12 -80 -15 -98 l-6 -32 39 17 c21 10 52 28 68 40 l30
21 -35 -1 c-29 -2 -35 2 -35 18 0 13 15 28 48 45 26 14 53 36 60 50 9 17 20
24 35 23 26 -3 28 12 6 34 -8 9 -13 22 -10 29 3 8 4 14 3 13 -1 0 -19 -9 -40
-18z"/>
<path d="M3616 3421 c-4 -5 -4 -16 -1 -23 12 -30 -14 -64 -76 -100 -152 -88
-157 -92 -183 -143 -30 -60 -47 -105 -40 -105 8 0 122 79 129 90 3 5 25 18 48
28 23 11 64 36 91 56 43 33 50 36 63 23 12 -11 12 -19 4 -35 -12 -22 -126
-102 -146 -102 -6 0 -20 -9 -30 -20 -9 -10 -47 -38 -82 -61 -57 -37 -67 -41
-85 -30 -14 9 -23 10 -31 2 -13 -13 -13 -14 54 -34 66 -20 99 -22 99 -4 0 22
108 100 202 144 50 24 96 51 103 60 26 35 62 -17 37 -52 -4 -6 -51 -31 -105
-55 -87 -40 -177 -103 -177 -124 0 -4 35 -6 78 -4 70 3 77 5 80 25 2 12 13 23
26 27 12 3 56 32 98 65 41 32 90 67 109 76 41 21 121 76 131 90 5 6 -36 12
-115 17 -199 10 -255 45 -257 156 0 39 -11 54 -24 33z"/>
<path d="M2740 4592 c-47 -31 -52 -37 -32 -40 26 -4 31 -46 7 -56 -8 -3 -25
-26 -37 -51 -17 -35 -27 -45 -43 -43 -31 5 -30 35 4 89 16 27 28 49 25 49 -3
0 -39 -25 -80 -56 -82 -62 -84 -73 -16 -95 46 -14 73 -38 128 -112 50 -67 73
-151 83 -297 l6 -95 66 87 c36 48 86 102 110 120 24 19 54 49 67 68 30 45 56
46 60 4 3 -28 -5 -39 -72 -99 -41 -37 -103 -105 -138 -151 -56 -77 -90 -105
-105 -90 -3 3 -20 -22 -37 -57 -57 -113 -96 -162 -162 -207 -35 -23 -64 -48
-66 -55 -4 -15 -389 -383 -423 -404 -13 -8 -26 -23 -28 -33 -6 -21 -40 -24
-56 -4 -16 20 -4 42 41 75 55 40 348 320 348 332 0 6 -4 8 -9 5 -4 -3 -30 -8
-56 -10 -51 -5 -48 -2 -351 -291 -93 -89 -106 -97 -119 -84 -9 9 -13 22 -10
30 6 15 156 162 274 268 52 46 68 67 59 72 -29 19 -55 6 -123 -58 -39 -38
-105 -95 -145 -128 -40 -33 -79 -70 -87 -82 -19 -29 -50 -29 -59 -1 -6 19 4
32 57 81 35 32 87 76 114 97 28 21 70 58 94 83 l43 45 -18 26 c-11 14 -22 24
-25 23 -13 -4 -244 -233 -255 -252 -15 -26 -44 -13 -44 21 0 20 28 53 131 152
l130 127 -15 37 -16 37 -67 -72 c-38 -40 -91 -99 -120 -131 -46 -54 -53 -59
-69 -45 -16 13 -17 9 -12 -76 6 -104 20 -137 98 -235 87 -110 111 -124 302
-170 102 -25 143 -30 244 -30 145 0 334 30 409 64 78 36 186 110 244 168 53
53 118 171 155 282 27 79 45 241 47 407 2 147 0 161 -35 299 -32 127 -84 261
-107 276 -4 2 -53 -48 -109 -111 -100 -113 -130 -134 -138 -93 -3 15 168 227
201 249 12 8 -4 37 -36 67 l-25 24 -11 -21 c-7 -12 -19 -21 -29 -21 -27 0 -69
-32 -97 -75 -40 -59 -96 -114 -110 -108 -27 10 -24 34 9 71 18 20 47 58 64 84
23 33 47 54 82 70 28 13 50 26 50 29 0 4 -13 12 -30 19 -16 7 -35 18 -41 26
-17 20 -28 17 -89 -24z m364 -678 c4 -10 -8 -33 -33 -63 -51 -60 -208 -212
-296 -286 -38 -33 -92 -84 -120 -114 -180 -198 -213 -231 -336 -334 -31 -26
-56 -54 -55 -63 0 -9 -7 -21 -16 -27 -25 -16 -53 13 -44 45 9 32 20 45 106
115 77 62 182 168 328 331 46 50 90 92 98 92 7 0 85 71 171 159 87 87 165 159
174 160 9 0 20 -6 23 -15z m-86 -315 c3 -22 -8 -36 -63 -83 -36 -31 -70 -56
-74 -56 -4 0 -46 -39 -93 -87 -46 -49 -141 -147 -211 -218 -70 -72 -127 -136
-127 -142 0 -22 -26 -33 -45 -19 -29 21 -12 56 61 127 36 35 118 120 182 189
117 126 152 158 255 239 31 24 59 52 63 63 9 30 48 20 52 -13z m26 -85 c9 -4
16 -18 16 -34 0 -21 -20 -46 -93 -116 -89 -86 -199 -211 -300 -343 -48 -62
-62 -69 -80 -40 -7 12 4 34 47 90 104 135 189 233 278 319 49 47 88 90 88 96
0 8 19 34 26 34 1 0 9 -3 18 -6z"/>
<path d="M2078 4574 c-4 -3 -60 -12 -125 -20 -65 -8 -136 -18 -158 -21 l-40
-5 -1 -202 c-1 -179 -19 -404 -51 -611 l-6 -40 46 42 c24 23 64 54 88 69 58
36 89 70 89 98 0 28 28 113 48 144 25 39 0 24 -50 -30 -45 -49 -49 -51 -65
-36 -15 16 -15 19 2 45 10 15 67 74 126 131 105 100 199 209 212 245 4 9 13
17 22 17 22 0 19 11 -15 56 -16 21 -30 47 -30 57 0 33 -31 67 -59 67 -15 0
-30 -3 -33 -6z m-68 -74 c0 -26 -185 -205 -213 -205 -12 0 -23 7 -24 15 -3 18
10 34 115 133 82 77 122 96 122 57z m119 -28 c14 -26 -105 -201 -164 -242 -48
-33 -109 -103 -119 -137 -5 -16 -15 -23 -32 -23 -34 0 -32 35 7 93 30 45 113
127 130 127 4 0 38 45 74 100 37 55 73 100 81 100 7 0 18 -8 23 -18z"/>
<path d="M2220 4314 c-18 -26 -61 -76 -94 -113 -34 -36 -46 -53 -27 -38 38 32
108 68 164 86 20 7 37 14 37 16 0 5 -41 95 -44 95 -1 0 -18 -21 -36 -46z"/>
<path d="M1850 3730 c-30 -22 -67 -54 -82 -71 -18 -22 -33 -30 -46 -27 -17 5
-21 -1 -26 -40 -3 -24 -6 -65 -6 -91 l0 -46 47 55 c86 100 176 190 190 190 7
0 13 4 13 9 0 18 -20 61 -27 60 -5 0 -33 -18 -63 -39z"/>
<path d="M558 4598 c18 -18 15 -46 -6 -57 -21 -11 -86 -127 -78 -139 8 -14 66
-1 66 14 0 8 7 17 15 20 8 4 36 38 61 78 26 39 54 77 62 84 13 10 3 12 -58 12
-58 0 -71 -3 -62 -12z"/>
<path d="M745 4591 c4 -14 0 -23 -14 -30 -19 -11 -101 -125 -101 -142 0 -5 9
-9 20 -9 11 0 20 4 20 8 0 5 11 14 24 20 13 6 28 21 32 34 8 28 62 109 83 125
13 10 9 12 -27 13 -38 0 -43 -2 -37 -19z"/>
<path d="M433 4576 c-12 -12 -33 -45 -46 -72 -37 -77 -61 -114 -78 -119 -12
-4 -18 -24 -23 -82 -8 -100 -8 -143 2 -143 7 0 52 92 52 109 0 5 14 14 30 20
22 7 30 16 30 34 0 14 -7 27 -15 31 -22 8 -18 44 5 58 12 7 39 45 60 85 22 39
50 79 62 87 22 16 22 16 -17 15 -27 -1 -47 -8 -62 -23z"/>
<path d="M860 4585 c11 -13 7 -21 -22 -49 -42 -41 -81 -118 -64 -127 6 -4 30
-9 54 -12 36 -4 42 -2 42 13 0 10 7 23 15 30 8 7 15 18 15 25 0 18 79 105 96
105 8 0 14 4 14 9 0 11 -51 21 -112 21 -44 0 -49 -2 -38 -15z"/>
<path d="M317 4583 c-7 -13 -19 -113 -14 -113 5 0 57 107 57 116 0 7 -39 4
-43 -3z"/>
<path d="M1050 4553 c0 -15 -8 -26 -23 -32 -23 -9 -77 -68 -77 -85 0 -5 -9
-20 -21 -32 -35 -38 -4 -36 51 4 86 61 120 93 120 113 0 10 8 22 18 28 19 11
11 15 -40 24 -24 4 -28 1 -28 -20z"/>
<path d="M1157 4524 c5 -31 1 -38 -45 -82 -28 -26 -65 -59 -83 -73 -31 -25
-32 -27 -16 -50 39 -54 10 -138 -62 -183 -40 -25 -95 -37 -246 -52 -38 -4 -64
-9 -57 -11 20 -8 13 -26 -24 -63 -20 -19 -45 -53 -56 -75 -31 -61 -75 -112
-134 -156 -31 -23 -56 -50 -60 -64 -8 -34 -38 -50 -54 -30 -20 24 -2 67 47
110 85 75 135 130 148 163 8 18 31 53 51 77 l36 45 -76 0 c-101 0 -120 18
-128 120 l-3 35 -23 -42 c-12 -23 -22 -49 -22 -57 0 -9 -13 -25 -30 -38 -30
-21 -30 -23 -30 -115 0 -55 4 -93 10 -93 6 0 10 4 10 10 0 5 11 12 24 16 24 6
63 43 81 79 6 11 19 20 30 20 15 0 21 -8 23 -31 3 -26 -5 -39 -40 -73 -24 -22
-48 -41 -53 -41 -6 0 -25 -12 -42 -27 l-32 -28 -2 -210 c-2 -262 -1 -285 10
-285 5 0 12 12 16 27 3 15 39 61 80 102 l73 76 4 68 4 67 -37 -36 c-38 -37
-71 -43 -77 -13 -3 19 194 211 242 236 42 22 119 90 128 115 12 30 42 19 46
-17 2 -26 -5 -37 -50 -76 -29 -25 -71 -57 -93 -71 -54 -35 -126 -100 -100 -91
11 4 36 17 56 30 39 26 124 42 219 43 43 0 51 3 37 11 -25 15 -12 74 26 118
l29 34 -22 17 c-33 25 -23 54 20 60 30 4 35 8 32 29 -3 16 7 34 28 56 17 18
47 63 66 101 29 58 32 69 19 77 -23 13 -18 34 16 64 17 16 39 44 50 63 10 19
36 54 58 77 41 44 41 46 -2 62 -25 10 -25 9 -20 -25z"/>
<path d="M1270 4485 c0 -8 -6 -15 -13 -15 -17 0 -78 -65 -105 -112 -17 -30
-18 -37 -6 -42 21 -8 17 -44 -7 -56 -11 -7 -35 -42 -52 -78 -17 -37 -43 -82
-59 -100 -15 -18 -28 -36 -28 -41 0 -10 74 -4 143 11 49 10 165 87 193 127 22
31 44 111 44 161 0 48 -13 73 -63 128 -34 35 -47 40 -47 17z m74 -81 c28 -11
17 -42 -44 -124 -32 -44 -78 -110 -102 -145 -44 -67 -57 -76 -78 -50 -11 13
-6 25 25 73 37 55 178 252 182 252 1 0 8 -3 17 -6z"/>
<path d="M513 4343 c-62 -5 -64 -9 -55 -118 l7 -80 105 -3 c113 -3 292 13 325
30 37 19 75 61 75 83 0 28 -24 49 -80 70 -46 18 -259 28 -377 18z"/>
<path d="M970 3930 c0 -11 -16 -34 -35 -51 -20 -18 -35 -40 -35 -53 0 -12 -5
-27 -11 -33 -7 -7 2 -12 33 -17 24 -4 53 -9 66 -13 12 -3 22 -1 22 4 0 6 25
35 55 65 30 30 55 60 55 66 0 6 -26 19 -57 28 -32 8 -66 18 -75 20 -13 4 -18
0 -18 -16z"/>
<path d="M1170 3870 c0 -5 -25 -36 -55 -69 l-56 -59 25 -37 c14 -20 28 -45 31
-56 4 -10 10 -19 14 -19 4 0 42 38 84 84 l77 84 -41 35 c-40 35 -79 53 -79 37z"/>
<path d="M1245 3663 c-43 -48 -86 -92 -97 -97 -10 -5 -18 -14 -18 -21 0 -23
-76 -114 -118 -140 -24 -15 -64 -30 -88 -33 -39 -4 -54 -13 -102 -62 -31 -31
-70 -73 -85 -93 -16 -20 -57 -58 -93 -84 -35 -26 -64 -50 -64 -55 0 -4 48 -8
106 -8 88 0 105 2 101 14 -8 21 -5 24 250 289 103 107 133 125 141 84 3 -12
-27 -50 -86 -110 -142 -146 -237 -248 -241 -259 -4 -11 24 -8 142 18 66 15 81
26 52 38 -28 11 -15 32 75 115 50 46 100 101 111 124 36 71 68 107 95 107 19
0 24 -5 24 -24 0 -13 -6 -26 -13 -29 -6 -2 -30 -35 -51 -72 -26 -43 -71 -96
-130 -151 -113 -105 -107 -107 79 -18 96 45 121 66 154 129 35 66 27 225 -17
343 -35 96 -38 96 -127 -5z m101 12 c8 -21 -94 -130 -121 -130 -39 0 -29 36
26 91 54 54 85 67 95 39z"/>
<path d="M675 3699 c-27 -11 -59 -29 -70 -39 -11 -10 -29 -20 -40 -22 -18 -3
-20 -11 -20 -73 0 -92 17 -124 75 -147 71 -27 172 -23 315 14 57 14 135 98
135 145 0 46 -32 106 -67 123 -17 8 -75 15 -153 17 -109 3 -131 0 -175 -18z"/>
<path d="M437 3397 c-26 -29 -55 -69 -65 -88 -14 -27 -22 -34 -45 -32 -26 2
-27 0 -27 -47 0 -42 4 -51 29 -69 16 -12 31 -21 34 -21 8 0 227 212 227 220 0
4 -11 12 -25 18 -14 7 -34 25 -43 42 -9 16 -22 30 -27 30 -6 0 -32 -24 -58
-53z"/>
<path d="M551 3237 c-61 -60 -111 -113 -111 -118 0 -10 42 -29 66 -29 8 0 14
7 14 15 0 8 10 19 21 26 40 21 139 101 157 125 9 14 27 38 40 54 l22 28 -49 4
-50 3 -110 -108z"/>
<path d="M1247 2743 c-11 -18 13 -297 26 -305 26 -17 185 -9 241 13 82 30 99
47 100 101 1 38 -6 56 -39 103 -25 37 -52 63 -74 72 -42 18 -245 30 -254 16z"/>
<path d="M2475 2140 c-50 -40 -59 -54 -85 -131 -21 -59 -22 -76 -16 -209 10
-236 48 -369 116 -414 51 -34 81 -33 135 4 43 29 43 30 49 102 4 40 11 109 17
153 8 57 8 121 0 222 -12 162 -31 217 -91 264 -55 43 -80 45 -125 9z"/>
<path d="M497 2633 c-10 -31 -15 -58 -13 -61 3 -2 17 -2 31 2 23 6 25 9 19 49
-10 67 -18 69 -37 10z"/>
<path d="M4325 2444 c-24 -18 -24 -22 -32 -190 -7 -180 15 -222 96 -180 53 28
111 125 111 185 0 40 -44 139 -77 174 -30 30 -67 35 -98 11z"/>
<path d="M3754 2411 c-45 -11 -119 -48 -139 -71 -13 -15 -15 -28 -10 -61 10
-57 40 -84 108 -99 66 -13 91 -4 157 59 43 41 51 77 29 138 -14 41 -66 53
-145 34z"/>
<path d="M925 1953 c-51 -7 -137 -34 -163 -51 -29 -19 -72 -105 -72 -145 0
-42 24 -91 56 -111 43 -29 202 -35 254 -10 22 11 40 25 40 32 0 24 32 26 49 4
14 -19 19 -20 40 -9 14 6 36 33 49 58 31 60 23 120 -23 187 l-32 47 -84 1
c-46 1 -97 -1 -114 -3z"/>
<path d="M3644 1393 c-24 -5 -50 -45 -40 -62 4 -6 22 -11 40 -11 35 0 76 34
76 63 0 17 -25 20 -76 10z"/>
</g>
</svg>
